<svg xmlns="http://www.w3.org/2000/svg" width="1440" height="900"><path d="M755,508L761,386L667,490Z" fill="#aacbcd" stroke="#aacbcd" stroke-width="1.51"/><path d="M761,386L660,391L667,490Z" fill="#adccce" stroke="#adccce" stroke-width="1.51"/><path d="M755,508L867,489L761,386Z" fill="#a8c9cc" stroke="#a8c9cc" stroke-width="1.51"/><path d="M761,386L661,289L660,391Z" fill="#afccce" stroke="#afccce" stroke-width="1.51"/><path d="M879,413L778,304L761,386Z" fill="#abc9cc" stroke="#abc9cc" stroke-width="1.51"/><path d="M867,489L879,413L761,386Z" fill="#a7c9cb" stroke="#a7c9cb" stroke-width="1.51"/><path d="M755,508L780,598L867,489Z" fill="#a2c6ca" stroke="#a2c6ca" stroke-width="1.51"/><path d="M657,612L780,598L755,508Z" fill="#a3c6ca" stroke="#a3c6ca" stroke-width="1.51"/><path d="M660,391L562,494L667,490Z" fill="#adcccd" stroke="#adcccd" stroke-width="1.51"/><path d="M667,490L657,612L755,508Z" fill="#a6c8cb" stroke="#a6c8cb" stroke-width="1.51"/><path d="M778,304L661,289L761,386Z" fill="#afcbce" stroke="#afcbce" stroke-width="1.51"/><path d="M660,391L552,385L562,494Z" fill="#afccce" stroke="#afccce" stroke-width="1.51"/><path d="M562,494L657,612L667,490Z" fill="#a9c8cb" stroke="#a9c8cb" stroke-width="1.51"/><path d="M579,295L552,385L660,391Z" fill="#b2cbcf" stroke="#b2cbcf" stroke-width="1.51"/><path d="M661,289L579,295L660,391Z" fill="#b2ccce" stroke="#b2ccce" stroke-width="1.51"/><path d="M780,598L857,604L867,489Z" fill="#9fc4c8" stroke="#9fc4c8" stroke-width="1.51"/><path d="M867,489L961,483L879,413Z" fill="#a3c6c9" stroke="#a3c6c9" stroke-width="1.51"/><path d="M786,692L857,604L780,598Z" fill="#9cc2c6" stroke="#9cc2c6" stroke-width="1.51"/><path d="M879,413L878,294L778,304Z" fill="#aac8cc" stroke="#aac8cc" stroke-width="1.51"/><path d="M778,304L776,188L661,289Z" fill="#b1cbce" stroke="#b1cbce" stroke-width="1.51"/><path d="M465,514L564,611L562,494Z" fill="#aac8cb" stroke="#aac8cb" stroke-width="1.51"/><path d="M562,494L564,611L657,612Z" fill="#a6c7ca" stroke="#a6c7ca" stroke-width="1.51"/><path d="M967,612L961,483L867,489Z" fill="#9dc3c7" stroke="#9dc3c7" stroke-width="1.51"/><path d="M879,413L968,311L878,294Z" fill="#a7c7ca" stroke="#a7c7ca" stroke-width="1.51"/><path d="M961,483L973,403L879,413Z" fill="#a2c6c9" stroke="#a2c6c9" stroke-width="1.51"/><path d="M683,716L786,692L657,612Z" fill="#9dc2c7" stroke="#9dc2c7" stroke-width="1.51"/><path d="M657,612L786,692L780,598Z" fill="#9ec4c7" stroke="#9ec4c7" stroke-width="1.51"/><path d="M857,604L967,612L867,489Z" fill="#9cc2c7" stroke="#9cc2c7" stroke-width="1.51"/><path d="M857,189L776,188L778,304Z" fill="#b0c9cc" stroke="#b0c9cc" stroke-width="1.51"/><path d="M661,289L570,201L579,295Z" fill="#b5cccf" stroke="#b5cccf" stroke-width="1.51"/><path d="M776,188L659,189L661,289Z" fill="#b4cccf" stroke="#b4cccf" stroke-width="1.51"/><path d="M459,388L465,514L562,494Z" fill="#b0cbce" stroke="#b0cbce" stroke-width="1.51"/><path d="M459,388L562,494L552,385Z" fill="#b1ccce" stroke="#b1ccce" stroke-width="1.51"/><path d="M466,304L459,388L552,385Z" fill="#b4cbcf" stroke="#b4cbcf" stroke-width="1.51"/><path d="M466,304L552,385L579,295Z" fill="#b4cbcf" stroke="#b4cbcf" stroke-width="1.51"/><path d="M565,691L683,716L657,612Z" fill="#9fc3c7" stroke="#9fc3c7" stroke-width="1.51"/><path d="M878,294L857,189L778,304Z" fill="#adc8cc" stroke="#adc8cc" stroke-width="1.51"/><path d="M973,403L968,311L879,413Z" fill="#a5c6c9" stroke="#a5c6c9" stroke-width="1.51"/><path d="M659,189L570,201L661,289Z" fill="#b6ccce" stroke="#b6ccce" stroke-width="1.51"/><path d="M972,201L857,189L878,294Z" fill="#abc7ca" stroke="#abc7ca" stroke-width="1.51"/><path d="M564,611L565,691L657,612Z" fill="#a2c3c8" stroke="#a2c3c8" stroke-width="1.51"/><path d="M453,617L565,691L564,611Z" fill="#a4c3c8" stroke="#a4c3c8" stroke-width="1.51"/><path d="M570,201L466,304L579,295Z" fill="#b7cbcf" stroke="#b7cbcf" stroke-width="1.51"/><path d="M879,703L967,612L857,604Z" fill="#98bfc4" stroke="#98bfc4" stroke-width="1.51"/><path d="M961,483L1064,513L973,403Z" fill="#9ec4c7" stroke="#9ec4c7" stroke-width="1.51"/><path d="M786,692L879,703L857,604Z" fill="#98bfc4" stroke="#98bfc4" stroke-width="1.51"/><path d="M856,794L879,703L786,692Z" fill="#94bdc2" stroke="#94bdc2" stroke-width="1.51"/><path d="M465,514L453,617L564,611Z" fill="#a8c6ca" stroke="#a8c6ca" stroke-width="1.51"/><path d="M354,603L453,617L465,514Z" fill="#abc6ca" stroke="#abc6ca" stroke-width="1.51"/><path d="M776,188L779,104L659,189Z" fill="#b5cbce" stroke="#b5cbce" stroke-width="1.51"/><path d="M659,189L584,103L570,201Z" fill="#b9cbcf" stroke="#b9cbcf" stroke-width="1.51"/><path d="M857,189L779,104L776,188Z" fill="#b2c9cd" stroke="#b2c9cd" stroke-width="1.51"/><path d="M967,612L1064,513L961,483Z" fill="#9ac1c5" stroke="#9ac1c5" stroke-width="1.51"/><path d="M973,403L1089,396L968,311Z" fill="#a2c4c8" stroke="#a2c4c8" stroke-width="1.51"/><path d="M1063,601L1064,513L967,612Z" fill="#96bec3" stroke="#96bec3" stroke-width="1.51"/><path d="M968,311L972,201L878,294Z" fill="#a8c6ca" stroke="#a8c6ca" stroke-width="1.51"/><path d="M857,189L861,98L779,104Z" fill="#b1c8cc" stroke="#b1c8cc" stroke-width="1.51"/><path d="M1069,289L972,201L968,311Z" fill="#a6c4c8" stroke="#a6c4c8" stroke-width="1.51"/><path d="M459,388L360,487L465,514Z" fill="#b1cbce" stroke="#b1cbce" stroke-width="1.51"/><path d="M466,304L377,388L459,388Z" fill="#b6cbcf" stroke="#b6cbcf" stroke-width="1.51"/><path d="M352,300L377,388L466,304Z" fill="#b8cbcf" stroke="#b8cbcf" stroke-width="1.51"/><path d="M683,716L772,802L786,692Z" fill="#98bfc4" stroke="#98bfc4" stroke-width="1.51"/><path d="M654,812L772,802L683,716Z" fill="#98bfc4" stroke="#98bfc4" stroke-width="1.51"/><path d="M879,703L977,700L967,612Z" fill="#94bdc2" stroke="#94bdc2" stroke-width="1.51"/><path d="M973,806L977,700L879,703Z" fill="#8fbac0" stroke="#8fbac0" stroke-width="1.51"/><path d="M565,691L654,812L683,716Z" fill="#9bc0c5" stroke="#9bc0c5" stroke-width="1.51"/><path d="M453,617L468,704L565,691Z" fill="#a3c2c7" stroke="#a3c2c7" stroke-width="1.51"/><path d="M364,693L468,704L453,617Z" fill="#a4c3c7" stroke="#a4c3c7" stroke-width="1.51"/><path d="M779,104L657,88L659,189Z" fill="#b7cbce" stroke="#b7cbce" stroke-width="1.51"/><path d="M570,201L453,199L466,304Z" fill="#b9cbcf" stroke="#b9cbcf" stroke-width="1.51"/><path d="M377,388L360,487L459,388Z" fill="#b4ccce" stroke="#b4ccce" stroke-width="1.51"/><path d="M482,105L453,199L570,201Z" fill="#bbcbcf" stroke="#bbcbcf" stroke-width="1.51"/><path d="M657,88L584,103L659,189Z" fill="#b8cbce" stroke="#b8cbce" stroke-width="1.51"/><path d="M1064,513L1089,396L973,403Z" fill="#9ec3c7" stroke="#9ec3c7" stroke-width="1.51"/><path d="M561,817L654,812L565,691Z" fill="#9bbfc5" stroke="#9bbfc5" stroke-width="1.51"/><path d="M772,802L856,794L786,692Z" fill="#94bdc2" stroke="#94bdc2" stroke-width="1.51"/><path d="M971,106L861,98L857,189Z" fill="#afc6cb" stroke="#afc6cb" stroke-width="1.51"/><path d="M767,-5L658,10L657,88Z" fill="#b7cacd" stroke="#b7cacd" stroke-width="1.51"/><path d="M977,700L1063,601L967,612Z" fill="#93bcc2" stroke="#93bcc2" stroke-width="1.51"/><path d="M1064,513L1170,501L1089,396Z" fill="#99c0c5" stroke="#99c0c5" stroke-width="1.51"/><path d="M972,201L971,106L857,189Z" fill="#adc5ca" stroke="#adc5ca" stroke-width="1.51"/><path d="M1089,396L1069,289L968,311Z" fill="#a2c2c7" stroke="#a2c2c7" stroke-width="1.51"/><path d="M453,199L352,300L466,304Z" fill="#b9cbcf" stroke="#b9cbcf" stroke-width="1.51"/><path d="M377,388L268,402L360,487Z" fill="#b6cbcf" stroke="#b6cbcf" stroke-width="1.51"/><path d="M360,487L354,603L465,514Z" fill="#aec8cc" stroke="#aec8cc" stroke-width="1.51"/><path d="M267,486L354,603L360,487Z" fill="#b0c8cc" stroke="#b0c8cc" stroke-width="1.51"/><path d="M468,704L561,817L565,691Z" fill="#9dbfc5" stroke="#9dbfc5" stroke-width="1.51"/><path d="M457,804L561,817L468,704Z" fill="#9dbfc5" stroke="#9dbfc5" stroke-width="1.51"/><path d="M584,103L482,105L570,201Z" fill="#bbcbcf" stroke="#bbcbcf" stroke-width="1.51"/><path d="M453,199L354,202L352,300Z" fill="#bbcbcf" stroke="#bbcbcf" stroke-width="1.51"/><path d="M572,-19L482,105L584,103Z" fill="#bbcace" stroke="#bbcace" stroke-width="1.51"/><path d="M1069,289L1057,194L972,201Z" fill="#a6c3c8" stroke="#a6c3c8" stroke-width="1.51"/><path d="M1161,186L1057,194L1069,289Z" fill="#a4c1c6" stroke="#a4c1c6" stroke-width="1.51"/><path d="M1057,194L971,106L972,201Z" fill="#aac4c9" stroke="#aac4c9" stroke-width="1.51"/><path d="M977,700L1064,701L1063,601Z" fill="#8fbac0" stroke="#8fbac0" stroke-width="1.51"/><path d="M1159,590L1170,501L1064,513Z" fill="#94bdc3" stroke="#94bdc3" stroke-width="1.51"/><path d="M1065,791L1064,701L977,700Z" fill="#8cb8be" stroke="#8cb8be" stroke-width="1.51"/><path d="M354,603L364,693L453,617Z" fill="#a7c4c8" stroke="#a7c4c8" stroke-width="1.51"/><path d="M856,794L973,806L879,703Z" fill="#90bac0" stroke="#90bac0" stroke-width="1.51"/><path d="M876,903L973,806L856,794Z" fill="#8fbbc1" stroke="#8fbbc1" stroke-width="1.51"/><path d="M876,903L856,794L772,802Z" fill="#92bdc3" stroke="#92bdc3" stroke-width="1.51"/><path d="M656,901L772,802L654,812Z" fill="#98c0c5" stroke="#98c0c5" stroke-width="1.51"/><path d="M657,88L658,10L584,103Z" fill="#b8cacd" stroke="#b8cacd" stroke-width="1.51"/><path d="M767,-5L657,88L779,104Z" fill="#b6cacd" stroke="#b6cacd" stroke-width="1.51"/><path d="M767,-5L779,104L859,-2Z" fill="#b3c8cb" stroke="#b3c8cb" stroke-width="1.51"/><path d="M363,105L354,202L453,199Z" fill="#becbcf" stroke="#becbcf" stroke-width="1.51"/><path d="M364,693L457,804L468,704Z" fill="#a0c0c5" stroke="#a0c0c5" stroke-width="1.51"/><path d="M1159,590L1064,513L1063,601Z" fill="#94bcc2" stroke="#94bcc2" stroke-width="1.51"/><path d="M1089,396L1181,297L1069,289Z" fill="#9fc0c6" stroke="#9fc0c6" stroke-width="1.51"/><path d="M859,-2L779,104L861,98Z" fill="#b1c7cb" stroke="#b1c7cb" stroke-width="1.51"/><path d="M274,301L268,402L352,300Z" fill="#bacbcf" stroke="#bacbcf" stroke-width="1.51"/><path d="M352,300L268,402L377,388Z" fill="#b8cbcf" stroke="#b8cbcf" stroke-width="1.51"/><path d="M354,603L268,611L364,693Z" fill="#a9c4c9" stroke="#a9c4c9" stroke-width="1.51"/><path d="M268,402L267,486L360,487Z" fill="#b5cbce" stroke="#b5cbce" stroke-width="1.51"/><path d="M1064,701L1159,590L1063,601Z" fill="#90bac0" stroke="#90bac0" stroke-width="1.51"/><path d="M554,917L656,901L561,817Z" fill="#9ac0c6" stroke="#9ac0c6" stroke-width="1.51"/><path d="M561,817L656,901L654,812Z" fill="#9ac0c5" stroke="#9ac0c5" stroke-width="1.51"/><path d="M1258,388L1188,411L1283,511Z" fill="#98c0c5" stroke="#98c0c5" stroke-width="1.51"/><path d="M1170,501L1188,411L1089,396Z" fill="#99c0c5" stroke="#99c0c5" stroke-width="1.51"/><path d="M973,5L859,-2L861,98Z" fill="#afc5c9" stroke="#afc5c9" stroke-width="1.51"/><path d="M268,214L274,301L352,300Z" fill="#bccbcf" stroke="#bccbcf" stroke-width="1.51"/><path d="M656,901L770,916L772,802Z" fill="#97c0c5" stroke="#97c0c5" stroke-width="1.51"/><path d="M1188,411L1181,297L1089,396Z" fill="#9cbfc5" stroke="#9cbfc5" stroke-width="1.51"/><path d="M1057,194L1067,98L971,106Z" fill="#a9c3c8" stroke="#a9c3c8" stroke-width="1.51"/><path d="M971,106L973,5L861,98Z" fill="#adc4c9" stroke="#adc4c9" stroke-width="1.51"/><path d="M770,916L876,903L772,802Z" fill="#94bec3" stroke="#94bec3" stroke-width="1.51"/><path d="M351,887L471,888L457,804Z" fill="#9fbfc6" stroke="#9fbfc6" stroke-width="1.51"/><path d="M267,486L268,611L354,603Z" fill="#aec6cb" stroke="#aec6cb" stroke-width="1.51"/><path d="M1082,912L1065,791L973,806Z" fill="#8ab7bf" stroke="#8ab7bf" stroke-width="1.51"/><path d="M973,806L1065,791L977,700Z" fill="#8cb7be" stroke="#8cb7be" stroke-width="1.51"/><path d="M1064,701L1167,719L1159,590Z" fill="#8cb7be" stroke="#8cb7be" stroke-width="1.51"/><path d="M658,10L572,-19L584,103Z" fill="#b9cacd" stroke="#b9cacd" stroke-width="1.51"/><path d="M482,105L363,105L453,199Z" fill="#bdcbcf" stroke="#bdcbcf" stroke-width="1.51"/><path d="M677,-101L572,-19L658,10Z" fill="#b8c9cb" stroke="#b8c9cb" stroke-width="1.51"/><path d="M677,-101L658,10L767,-5Z" fill="#b6c9cb" stroke="#b6c9cb" stroke-width="1.51"/><path d="M1161,186L1067,98L1057,194Z" fill="#a6c1c7" stroke="#a6c1c7" stroke-width="1.51"/><path d="M354,202L268,214L352,300Z" fill="#bdcbd0" stroke="#bdcbd0" stroke-width="1.51"/><path d="M469,-9L363,105L482,105Z" fill="#bdcace" stroke="#bdcace" stroke-width="1.51"/><path d="M471,888L554,917L561,817Z" fill="#9cc0c6" stroke="#9cc0c6" stroke-width="1.51"/><path d="M656,901L666,988L770,916Z" fill="#97c0c6" stroke="#97c0c6" stroke-width="1.51"/><path d="M471,888L561,817L457,804Z" fill="#9dbfc6" stroke="#9dbfc6" stroke-width="1.51"/><path d="M1067,98L973,5L971,106Z" fill="#abc2c7" stroke="#abc2c7" stroke-width="1.51"/><path d="M352,817L457,804L364,693Z" fill="#a0bfc5" stroke="#a0bfc5" stroke-width="1.51"/><path d="M363,105L268,214L354,202Z" fill="#bfcad0" stroke="#bfcad0" stroke-width="1.51"/><path d="M155,395L267,486L268,402Z" fill="#b7cbce" stroke="#b7cbce" stroke-width="1.51"/><path d="M166,507L268,611L267,486Z" fill="#b1c8cc" stroke="#b1c8cc" stroke-width="1.51"/><path d="M1181,297L1161,186L1069,289Z" fill="#a0c0c6" stroke="#a0c0c6" stroke-width="1.51"/><path d="M1067,98L1056,-17L973,5Z" fill="#a9c2c6" stroke="#a9c2c6" stroke-width="1.51"/><path d="M876,903L963,899L973,806Z" fill="#8ebac1" stroke="#8ebac1" stroke-width="1.51"/><path d="M870,1013L963,899L876,903Z" fill="#8fbbc3" stroke="#8fbbc3" stroke-width="1.51"/><path d="M572,-19L469,-9L482,105Z" fill="#bccacd" stroke="#bccacd" stroke-width="1.51"/><path d="M1184,815L1167,719L1065,791Z" fill="#86b4bc" stroke="#86b4bc" stroke-width="1.51"/><path d="M1065,791L1167,719L1064,701Z" fill="#89b5bd" stroke="#89b5bd" stroke-width="1.51"/><path d="M1283,511L1188,411L1170,501Z" fill="#96bec4" stroke="#96bec4" stroke-width="1.51"/><path d="M276,788L352,817L364,693Z" fill="#a2bfc5" stroke="#a2bfc5" stroke-width="1.51"/><path d="M268,611L255,707L364,693Z" fill="#a8c2c8" stroke="#a8c2c8" stroke-width="1.51"/><path d="M153,689L255,707L268,611Z" fill="#a9c2c7" stroke="#a9c2c7" stroke-width="1.51"/><path d="M166,507L267,486L155,395Z" fill="#b5cacd" stroke="#b5cacd" stroke-width="1.51"/><path d="M1181,297L1280,204L1161,186Z" fill="#a0bfc5" stroke="#a0bfc5" stroke-width="1.51"/><path d="M1188,411L1258,388L1181,297Z" fill="#9bbfc5" stroke="#9bbfc5" stroke-width="1.51"/><path d="M1283,511L1170,501L1274,601Z" fill="#92bcc2" stroke="#92bcc2" stroke-width="1.51"/><path d="M553,1009L666,988L554,917Z" fill="#9ac0c7" stroke="#9ac0c7" stroke-width="1.51"/><path d="M554,917L666,988L656,901Z" fill="#99c0c6" stroke="#99c0c6" stroke-width="1.51"/><path d="M770,916L870,1013L876,903Z" fill="#92bdc4" stroke="#92bdc4" stroke-width="1.51"/><path d="M572,-19L552,-98L469,-9Z" fill="#bac9cc" stroke="#bac9cc" stroke-width="1.51"/><path d="M775,-122L677,-101L767,-5Z" fill="#b5c9ca" stroke="#b5c9ca" stroke-width="1.51"/><path d="M860,-89L767,-5L859,-2Z" fill="#b1c6c9" stroke="#b1c6c9" stroke-width="1.51"/><path d="M973,5L860,-89L859,-2Z" fill="#aec4c8" stroke="#aec4c8" stroke-width="1.51"/><path d="M175,302L268,402L274,301Z" fill="#bbcbcf" stroke="#bbcbcf" stroke-width="1.51"/><path d="M255,707L276,788L364,693Z" fill="#a4c0c6" stroke="#a4c0c6" stroke-width="1.51"/><path d="M352,817L351,887L457,804Z" fill="#a0c0c6" stroke="#a0c0c6" stroke-width="1.51"/><path d="M179,794L276,788L255,707Z" fill="#a3bfc5" stroke="#a3bfc5" stroke-width="1.51"/><path d="M1258,388L1267,304L1181,297Z" fill="#9cbfc5" stroke="#9cbfc5" stroke-width="1.51"/><path d="M1274,601L1170,501L1159,590Z" fill="#90bbc1" stroke="#90bbc1" stroke-width="1.51"/><path d="M1258,388L1369,396L1267,304Z" fill="#9bbfc6" stroke="#9bbfc6" stroke-width="1.51"/><path d="M268,214L175,302L274,301Z" fill="#bdcbcf" stroke="#bdcbcf" stroke-width="1.51"/><path d="M165,203L175,302L268,214Z" fill="#becace" stroke="#becace" stroke-width="1.51"/><path d="M252,92L268,214L363,105Z" fill="#c1cad0" stroke="#c1cad0" stroke-width="1.51"/><path d="M677,-101L552,-98L572,-19Z" fill="#b9c9cb" stroke="#b9c9cb" stroke-width="1.51"/><path d="M469,-9L368,-17L363,105Z" fill="#becacd" stroke="#becacd" stroke-width="1.51"/><path d="M175,302L155,395L268,402Z" fill="#b9cace" stroke="#b9cace" stroke-width="1.51"/><path d="M860,-89L775,-122L767,-5Z" fill="#b2c7c9" stroke="#b2c7c9" stroke-width="1.51"/><path d="M677,-101L775,-122L552,-98Z" fill="#b7c9ca" stroke="#b7c9ca" stroke-width="1.51"/><path d="M973,5L967,-119L860,-89Z" fill="#adc3c7" stroke="#adc3c7" stroke-width="1.51"/><path d="M860,-89L967,-119L775,-122Z" fill="#b0c5c8" stroke="#b0c5c8" stroke-width="1.51"/><path d="M1179,9L1056,-17L1067,98Z" fill="#a6c0c5" stroke="#a6c0c5" stroke-width="1.51"/><path d="M1171,82L1067,98L1161,186Z" fill="#a5bfc6" stroke="#a5bfc6" stroke-width="1.51"/><path d="M1167,719L1274,601L1159,590Z" fill="#8cb8be" stroke="#8cb8be" stroke-width="1.51"/><path d="M666,988L756,1019L770,916Z" fill="#96c0c6" stroke="#96c0c6" stroke-width="1.51"/><path d="M454,991L553,1009L554,917Z" fill="#9cc1c7" stroke="#9cc1c7" stroke-width="1.51"/><path d="M661,1120L775,1111L756,1019Z" fill="#96c1c7" stroke="#96c1c7" stroke-width="1.51"/><path d="M268,890L351,887L352,817Z" fill="#a1bfc6" stroke="#a1bfc6" stroke-width="1.51"/><path d="M1266,100L1171,82L1161,186Z" fill="#a3bfc5" stroke="#a3bfc5" stroke-width="1.51"/><path d="M383,-96L368,-17L469,-9Z" fill="#bdc9cc" stroke="#bdc9cc" stroke-width="1.51"/><path d="M756,1019L870,1013L770,916Z" fill="#93bfc5" stroke="#93bfc5" stroke-width="1.51"/><path d="M963,899L1082,912L973,806Z" fill="#8bb8bf" stroke="#8bb8bf" stroke-width="1.51"/><path d="M166,507L157,605L268,611Z" fill="#aec6ca" stroke="#aec6ca" stroke-width="1.51"/><path d="M79,496L157,605L166,507Z" fill="#b1c7cb" stroke="#b1c7cb" stroke-width="1.51"/><path d="M280,-2L252,92L363,105Z" fill="#c1c9ce" stroke="#c1c9ce" stroke-width="1.51"/><path d="M454,991L554,917L471,888Z" fill="#9dc0c7" stroke="#9dc0c7" stroke-width="1.51"/><path d="M984,1021L1082,912L963,899Z" fill="#8ab9c1" stroke="#8ab9c1" stroke-width="1.51"/><path d="M1167,719L1291,702L1274,601Z" fill="#89b6be" stroke="#89b6be" stroke-width="1.51"/><path d="M1082,912L1184,815L1065,791Z" fill="#87b5be" stroke="#87b5be" stroke-width="1.51"/><path d="M775,-122L462,-102L552,-98Z" fill="#b9c8cb" stroke="#b9c8cb" stroke-width="1.51"/><path d="M552,-98L462,-102L469,-9Z" fill="#bbc9cb" stroke="#bbc9cb" stroke-width="1.51"/><path d="M252,92L165,203L268,214Z" fill="#c0cacf" stroke="#c0cacf" stroke-width="1.51"/><path d="M54,415L79,496L155,395Z" fill="#b7cacd" stroke="#b7cacd" stroke-width="1.51"/><path d="M1374,312L1280,204L1267,304Z" fill="#9ebfc6" stroke="#9ebfc6" stroke-width="1.51"/><path d="M1267,304L1280,204L1181,297Z" fill="#9ebfc5" stroke="#9ebfc5" stroke-width="1.51"/><path d="M351,887L454,991L471,888Z" fill="#9ec0c6" stroke="#9ec0c6" stroke-width="1.51"/><path d="M1056,-17L967,-119L973,5Z" fill="#aac2c5" stroke="#aac2c5" stroke-width="1.51"/><path d="M1084,-96L967,-119L1056,-17Z" fill="#a9c1c4" stroke="#a9c1c4" stroke-width="1.51"/><path d="M276,788L268,890L352,817Z" fill="#a2bfc6" stroke="#a2bfc6" stroke-width="1.51"/><path d="M351,887L367,1005L454,991Z" fill="#9fc1c7" stroke="#9fc1c7" stroke-width="1.51"/><path d="M157,605L153,689L268,611Z" fill="#abc3c8" stroke="#abc3c8" stroke-width="1.51"/><path d="M57,618L153,689L157,605Z" fill="#abc2c7" stroke="#abc2c7" stroke-width="1.51"/><path d="M1184,815L1291,702L1167,719Z" fill="#85b3bc" stroke="#85b3bc" stroke-width="1.51"/><path d="M1380,502L1369,396L1283,511Z" fill="#96bfc5" stroke="#96bfc5" stroke-width="1.51"/><path d="M1283,511L1369,396L1258,388Z" fill="#98c0c5" stroke="#98c0c5" stroke-width="1.51"/><path d="M259,-113L280,-2L368,-17Z" fill="#c0c8cc" stroke="#c0c8cc" stroke-width="1.51"/><path d="M368,-17L280,-2L363,105Z" fill="#c0c9ce" stroke="#c0c9ce" stroke-width="1.51"/><path d="M252,92L159,109L165,203Z" fill="#c1c9cf" stroke="#c1c9cf" stroke-width="1.51"/><path d="M1171,82L1179,9L1067,98Z" fill="#a5bfc4" stroke="#a5bfc4" stroke-width="1.51"/><path d="M1266,100L1179,9L1171,82Z" fill="#a3bec4" stroke="#a3bec4" stroke-width="1.51"/><path d="M1082,912L1163,906L1184,815Z" fill="#85b5bd" stroke="#85b5bd" stroke-width="1.51"/><path d="M870,1013L984,1021L963,899Z" fill="#8dbbc2" stroke="#8dbbc2" stroke-width="1.51"/><path d="M876,1119L984,1021L870,1013Z" fill="#8ebcc4" stroke="#8ebcc4" stroke-width="1.51"/><path d="M179,794L268,890L276,788Z" fill="#a3bfc5" stroke="#a3bfc5" stroke-width="1.51"/><path d="M1177,1017L1163,906L1082,912Z" fill="#85b6bd" stroke="#85b6bd" stroke-width="1.51"/><path d="M1184,815L1289,816L1291,702Z" fill="#84b4bc" stroke="#84b4bc" stroke-width="1.51"/><path d="M462,-102L383,-96L469,-9Z" fill="#bdc9cb" stroke="#bdc9cb" stroke-width="1.51"/><path d="M1280,204L1266,100L1161,186Z" fill="#a3bfc6" stroke="#a3bfc6" stroke-width="1.51"/><path d="M155,395L79,496L166,507Z" fill="#b5cacd" stroke="#b5cacd" stroke-width="1.51"/><path d="M78,290L155,395L175,302Z" fill="#bbcace" stroke="#bbcace" stroke-width="1.51"/><path d="M153,689L179,794L255,707Z" fill="#a5bfc5" stroke="#a5bfc5" stroke-width="1.51"/><path d="M74,707L179,794L153,689Z" fill="#a5bfc4" stroke="#a5bfc4" stroke-width="1.51"/><path d="M1359,614L1283,511L1274,601Z" fill="#8fbbc1" stroke="#8fbbc1" stroke-width="1.51"/><path d="M1280,204L1364,104L1266,100Z" fill="#a3bfc6" stroke="#a3bfc6" stroke-width="1.51"/><path d="M1162,-116L1084,-96L1179,9Z" fill="#a4bec2" stroke="#a4bec2" stroke-width="1.51"/><path d="M1179,9L1084,-96L1056,-17Z" fill="#a6bfc3" stroke="#a6bfc3" stroke-width="1.51"/><path d="M165,203L78,290L175,302Z" fill="#bdcace" stroke="#bdcace" stroke-width="1.51"/><path d="M165,-21L159,109L252,92Z" fill="#c1c8cd" stroke="#c1c8cd" stroke-width="1.51"/><path d="M1291,702L1359,614L1274,601Z" fill="#8bb8bf" stroke="#8bb8bf" stroke-width="1.51"/><path d="M1367,702L1359,614L1291,702Z" fill="#89b7bf" stroke="#89b7bf" stroke-width="1.51"/><path d="M1359,614L1380,502L1283,511Z" fill="#91bcc2" stroke="#91bcc2" stroke-width="1.51"/><path d="M78,191L78,290L165,203Z" fill="#becacd" stroke="#becacd" stroke-width="1.51"/><path d="M252,1009L367,1005L268,890Z" fill="#a2c0c7" stroke="#a2c0c7" stroke-width="1.51"/><path d="M268,890L367,1005L351,887Z" fill="#a1c0c7" stroke="#a1c0c7" stroke-width="1.51"/><path d="M465,1116L566,1101L553,1009Z" fill="#9cc1c8" stroke="#9cc1c8" stroke-width="1.51"/><path d="M661,1120L756,1019L666,988Z" fill="#97c1c7" stroke="#97c1c7" stroke-width="1.51"/><path d="M1369,396L1374,312L1267,304Z" fill="#9bbfc6" stroke="#9bbfc6" stroke-width="1.51"/><path d="M1463,412L1374,312L1369,396Z" fill="#9ac0c6" stroke="#9ac0c6" stroke-width="1.51"/><path d="M984,1021L1057,1021L1082,912Z" fill="#89b8c1" stroke="#89b8c1" stroke-width="1.51"/><path d="M756,1019L775,1111L870,1013Z" fill="#93bfc6" stroke="#93bfc6" stroke-width="1.51"/><path d="M984,1021L987,1114L1057,1021Z" fill="#8abac2" stroke="#8abac2" stroke-width="1.51"/><path d="M566,1101L666,988L553,1009Z" fill="#9ac1c8" stroke="#9ac1c8" stroke-width="1.51"/><path d="M78,290L54,415L155,395Z" fill="#b9cacd" stroke="#b9cacd" stroke-width="1.51"/><path d="M465,1116L553,1009L454,991Z" fill="#9cc1c8" stroke="#9cc1c8" stroke-width="1.51"/><path d="M1290,908L1184,815L1163,906Z" fill="#84b4bc" stroke="#84b4bc" stroke-width="1.51"/><path d="M1290,908L1289,816L1184,815Z" fill="#83b4bc" stroke="#83b4bc" stroke-width="1.51"/><path d="M566,1101L661,1120L666,988Z" fill="#99c1c7" stroke="#99c1c7" stroke-width="1.51"/><path d="M79,496L57,618L157,605Z" fill="#aec5c9" stroke="#aec5c9" stroke-width="1.51"/><path d="M-25,512L57,618L79,496Z" fill="#b0c6c9" stroke="#b0c6c9" stroke-width="1.51"/><path d="M775,1111L876,1119L870,1013Z" fill="#91bec5" stroke="#91bec5" stroke-width="1.51"/><path d="M661,1120L876,1119L775,1111Z" fill="#94c0c6" stroke="#94c0c6" stroke-width="1.51"/><path d="M159,109L78,191L165,203Z" fill="#c1c9ce" stroke="#c1c9ce" stroke-width="1.51"/><path d="M-41,394L-25,512L54,415Z" fill="#b6c9cb" stroke="#b6c9cb" stroke-width="1.51"/><path d="M1290,-96L1162,-116L1179,9Z" fill="#a3bdc1" stroke="#a3bdc1" stroke-width="1.51"/><path d="M1374,312L1370,201L1280,204Z" fill="#a0c0c6" stroke="#a0c0c6" stroke-width="1.51"/><path d="M1367,796L1367,702L1291,702Z" fill="#85b4bd" stroke="#85b4bd" stroke-width="1.51"/><path d="M1482,608L1460,492L1380,502Z" fill="#91bdc4" stroke="#91bdc4" stroke-width="1.51"/><path d="M179,794L168,920L268,890Z" fill="#a3bfc6" stroke="#a3bfc6" stroke-width="1.51"/><path d="M57,618L74,707L153,689Z" fill="#a9c1c6" stroke="#a9c1c6" stroke-width="1.51"/><path d="M1084,-96L1162,-116L967,-119Z" fill="#a7bfc3" stroke="#a7bfc3" stroke-width="1.51"/><path d="M967,-119L1162,-116L775,-122Z" fill="#acc2c5" stroke="#acc2c5" stroke-width="1.51"/><path d="M1285,-5L1179,9L1266,100Z" fill="#a3bec4" stroke="#a3bec4" stroke-width="1.51"/><path d="M367,1005L465,1116L454,991Z" fill="#9ec1c8" stroke="#9ec1c8" stroke-width="1.51"/><path d="M566,1101L465,1116L661,1120Z" fill="#9bc1c8" stroke="#9bc1c8" stroke-width="1.51"/><path d="M363,1111L465,1116L367,1005Z" fill="#9fc1c8" stroke="#9fc1c8" stroke-width="1.51"/><path d="M1057,1021L1177,1017L1082,912Z" fill="#86b7bf" stroke="#86b7bf" stroke-width="1.51"/><path d="M876,1119L987,1114L984,1021Z" fill="#8cbbc3" stroke="#8cbbc3" stroke-width="1.51"/><path d="M1364,104L1285,-5L1266,100Z" fill="#a3bec5" stroke="#a3bec5" stroke-width="1.51"/><path d="M280,-2L165,-21L252,92Z" fill="#c1c9cd" stroke="#c1c9cd" stroke-width="1.51"/><path d="M159,109L48,96L78,191Z" fill="#c1c9cd" stroke="#c1c9cd" stroke-width="1.51"/><path d="M383,-96L259,-113L368,-17Z" fill="#bfc8cc" stroke="#bfc8cc" stroke-width="1.51"/><path d="M462,-102L259,-113L383,-96Z" fill="#bec7cb" stroke="#bec7cb" stroke-width="1.51"/><path d="M775,-122L259,-113L462,-102Z" fill="#bbc8cb" stroke="#bbc8cb" stroke-width="1.51"/><path d="M259,-113L165,-21L280,-2Z" fill="#c1c8cc" stroke="#c1c8cc" stroke-width="1.51"/><path d="M1370,201L1364,104L1280,204Z" fill="#a2bfc6" stroke="#a2bfc6" stroke-width="1.51"/><path d="M75,902L168,920L179,794Z" fill="#a3bfc5" stroke="#a3bfc5" stroke-width="1.51"/><path d="M1172,1090L1177,1017L1057,1021Z" fill="#84b6bf" stroke="#84b6bf" stroke-width="1.51"/><path d="M1289,816L1367,796L1291,702Z" fill="#84b3bc" stroke="#84b3bc" stroke-width="1.51"/><path d="M1280,998L1290,908L1163,906Z" fill="#83b4bd" stroke="#83b4bd" stroke-width="1.51"/><path d="M168,920L252,1009L268,890Z" fill="#a2c0c7" stroke="#a2c0c7" stroke-width="1.51"/><path d="M1386,915L1367,796L1289,816Z" fill="#83b4bd" stroke="#83b4bd" stroke-width="1.51"/><path d="M1482,608L1380,502L1359,614Z" fill="#8fbbc2" stroke="#8fbbc2" stroke-width="1.51"/><path d="M1380,502L1463,412L1369,396Z" fill="#98c0c6" stroke="#98c0c6" stroke-width="1.51"/><path d="M1374,312L1480,284L1370,201Z" fill="#9ec0c6" stroke="#9ec0c6" stroke-width="1.51"/><path d="M1370,201L1481,111L1364,104Z" fill="#a3c0c7" stroke="#a3c0c7" stroke-width="1.51"/><path d="M1482,608L1359,614L1367,702Z" fill="#8bb8c0" stroke="#8bb8c0" stroke-width="1.51"/><path d="M1460,492L1463,412L1380,502Z" fill="#96bfc5" stroke="#96bfc5" stroke-width="1.51"/><path d="M-41,691L47,801L74,707Z" fill="#a5bec3" stroke="#a5bec3" stroke-width="1.51"/><path d="M74,707L47,801L179,794Z" fill="#a3bec3" stroke="#a3bec3" stroke-width="1.51"/><path d="M54,415L-25,512L79,496Z" fill="#b5c9cb" stroke="#b5c9cb" stroke-width="1.51"/><path d="M-41,394L54,415L78,290Z" fill="#b9c9cc" stroke="#b9c9cc" stroke-width="1.51"/><path d="M267,1109L363,1111L367,1005Z" fill="#a1c1c8" stroke="#a1c1c8" stroke-width="1.51"/><path d="M-53,281L-41,394L78,290Z" fill="#bbc9cc" stroke="#bbc9cc" stroke-width="1.51"/><path d="M70,10L48,96L159,109Z" fill="#c1c8cc" stroke="#c1c8cc" stroke-width="1.51"/><path d="M168,920L156,1006L252,1009Z" fill="#a3c0c6" stroke="#a3c0c6" stroke-width="1.51"/><path d="M-41,691L74,707L57,618Z" fill="#a8c1c5" stroke="#a8c1c5" stroke-width="1.51"/><path d="M-53,281L78,290L-47,203Z" fill="#bdc9cc" stroke="#bdc9cc" stroke-width="1.51"/><path d="M1177,1017L1280,998L1163,906Z" fill="#83b4bd" stroke="#83b4bd" stroke-width="1.51"/><path d="M987,1114L1080,1122L1057,1021Z" fill="#88b9c1" stroke="#88b9c1" stroke-width="1.51"/><path d="M876,1119L1080,1122L987,1114Z" fill="#8bbac2" stroke="#8bbac2" stroke-width="1.51"/><path d="M661,1120L1080,1122L876,1119Z" fill="#90bdc5" stroke="#90bdc5" stroke-width="1.51"/><path d="M-25,512L-32,613L57,618Z" fill="#aec4c8" stroke="#aec4c8" stroke-width="1.51"/><path d="M-126,595L-32,613L-25,512Z" fill="#aec4c7" stroke="#aec4c7" stroke-width="1.51"/><path d="M1463,412L1480,284L1374,312Z" fill="#9cc0c7" stroke="#9cc0c7" stroke-width="1.51"/><path d="M1561,384L1480,284L1463,412Z" fill="#9ac0c7" stroke="#9ac0c7" stroke-width="1.51"/><path d="M1591,500L1561,384L1463,412Z" fill="#97c1c7" stroke="#97c1c7" stroke-width="1.51"/><path d="M1485,711L1482,608L1367,702Z" fill="#88b7c0" stroke="#88b7c0" stroke-width="1.51"/><path d="M259,-113L164,-101L165,-21Z" fill="#c1c7cb" stroke="#c1c7cb" stroke-width="1.51"/><path d="M165,-21L70,10L159,109Z" fill="#c1c8cc" stroke="#c1c8cc" stroke-width="1.51"/><path d="M52,-99L70,10L165,-21Z" fill="#c1c7ca" stroke="#c1c7ca" stroke-width="1.51"/><path d="M-47,203L78,290L78,191Z" fill="#bec9cc" stroke="#bec9cc" stroke-width="1.51"/><path d="M1364,-18L1285,-5L1364,104Z" fill="#a3bec4" stroke="#a3bec4" stroke-width="1.51"/><path d="M1364,-18L1290,-96L1285,-5Z" fill="#a3bdc3" stroke="#a3bdc3" stroke-width="1.51"/><path d="M1285,-5L1290,-96L1179,9Z" fill="#a3bdc3" stroke="#a3bdc3" stroke-width="1.51"/><path d="M1468,798L1485,711L1367,702Z" fill="#84b5bd" stroke="#84b5bd" stroke-width="1.51"/><path d="M1290,908L1386,915L1289,816Z" fill="#83b4bd" stroke="#83b4bd" stroke-width="1.51"/><path d="M1277,1090L1280,998L1177,1017Z" fill="#83b5be" stroke="#83b5be" stroke-width="1.51"/><path d="M1080,1122L1172,1090L1057,1021Z" fill="#86b7c0" stroke="#86b7c0" stroke-width="1.51"/><path d="M1471,6L1364,-18L1364,104Z" fill="#a3bfc5" stroke="#a3bfc5" stroke-width="1.51"/><path d="M47,801L75,902L179,794Z" fill="#a3bec4" stroke="#a3bec4" stroke-width="1.51"/><path d="M252,1009L267,1109L367,1005Z" fill="#a2c1c8" stroke="#a2c1c8" stroke-width="1.51"/><path d="M-49,904L75,902L47,801Z" fill="#a3bec3" stroke="#a3bec3" stroke-width="1.51"/><path d="M-123,691L-41,691L-32,613Z" fill="#a8c0c4" stroke="#a8c0c4" stroke-width="1.51"/><path d="M-47,203L78,191L48,96Z" fill="#c0c8cd" stroke="#c0c8cd" stroke-width="1.51"/><path d="M74,1001L156,1006L168,920Z" fill="#a3bfc6" stroke="#a3bfc6" stroke-width="1.51"/><path d="M-32,613L-41,691L57,618Z" fill="#aac1c5" stroke="#aac1c5" stroke-width="1.51"/><path d="M-134,506L-25,512L-41,394Z" fill="#b4c8ca" stroke="#b4c8ca" stroke-width="1.51"/><path d="M1480,284L1483,193L1370,201Z" fill="#9fc0c7" stroke="#9fc0c7" stroke-width="1.51"/><path d="M1593,210L1483,193L1480,284Z" fill="#9fc1c7" stroke="#9fc1c7" stroke-width="1.51"/><path d="M166,1088L267,1109L252,1009Z" fill="#a2c0c8" stroke="#a2c0c8" stroke-width="1.51"/><path d="M363,1111L47,1118L465,1116Z" fill="#a2c1c8" stroke="#a2c1c8" stroke-width="1.51"/><path d="M-34,85L-47,203L48,96Z" fill="#c1c8cc" stroke="#c1c8cc" stroke-width="1.51"/><path d="M1468,798L1367,702L1367,796Z" fill="#84b4bc" stroke="#84b4bc" stroke-width="1.51"/><path d="M1591,500L1463,412L1460,492Z" fill="#96c0c6" stroke="#96c0c6" stroke-width="1.51"/><path d="M1387,992L1386,915L1290,908Z" fill="#83b5be" stroke="#83b5be" stroke-width="1.51"/><path d="M1387,992L1290,908L1280,998Z" fill="#83b5be" stroke="#83b5be" stroke-width="1.51"/><path d="M1386,915L1468,798L1367,796Z" fill="#83b5bd" stroke="#83b5bd" stroke-width="1.51"/><path d="M1483,193L1481,111L1370,201Z" fill="#a2c0c7" stroke="#a2c0c7" stroke-width="1.51"/><path d="M70,10L-34,85L48,96Z" fill="#c1c7cb" stroke="#c1c7cb" stroke-width="1.51"/><path d="M-46,12L-34,85L70,10Z" fill="#c1c7ca" stroke="#c1c7ca" stroke-width="1.51"/><path d="M-123,691L-40,800L-41,691Z" fill="#a4bec2" stroke="#a4bec2" stroke-width="1.51"/><path d="M-41,691L-40,800L47,801Z" fill="#a3bdc2" stroke="#a3bdc2" stroke-width="1.51"/><path d="M74,1001L166,1088L156,1006Z" fill="#a2c0c7" stroke="#a2c0c7" stroke-width="1.51"/><path d="M1483,193L1584,85L1481,111Z" fill="#a3c0c7" stroke="#a3c0c7" stroke-width="1.51"/><path d="M1591,500L1460,492L1482,608Z" fill="#91bdc4" stroke="#91bdc4" stroke-width="1.51"/><path d="M1591,500L1482,608L1585,608Z" fill="#8fbcc3" stroke="#8fbcc3" stroke-width="1.51"/><path d="M74,1001L168,920L75,902Z" fill="#a3bfc5" stroke="#a3bfc5" stroke-width="1.51"/><path d="M156,1006L166,1088L252,1009Z" fill="#a2c0c7" stroke="#a2c0c7" stroke-width="1.51"/><path d="M1172,1090L1277,1090L1177,1017Z" fill="#83b5be" stroke="#83b5be" stroke-width="1.51"/><path d="M1386,915L1468,903L1468,798Z" fill="#83b5be" stroke="#83b5be" stroke-width="1.51"/><path d="M1080,1122L1277,1090L1172,1090Z" fill="#83b5be" stroke="#83b5be" stroke-width="1.51"/><path d="M-49,904L74,1001L75,902Z" fill="#a3bec4" stroke="#a3bec4" stroke-width="1.51"/><path d="M-141,388L-134,506L-41,394Z" fill="#b7c9ca" stroke="#b7c9ca" stroke-width="1.51"/><path d="M-128,303L-41,394L-53,281Z" fill="#bac8cb" stroke="#bac8cb" stroke-width="1.51"/><path d="M-128,303L-53,281L-122,213Z" fill="#bdc8cb" stroke="#bdc8cb" stroke-width="1.51"/><path d="M1561,384L1570,313L1480,284Z" fill="#9cc0c7" stroke="#9cc0c7" stroke-width="1.51"/><path d="M1373,1093L1387,992L1280,998Z" fill="#82b6be" stroke="#82b6be" stroke-width="1.51"/><path d="M-134,506L-126,595L-25,512Z" fill="#b0c5c7" stroke="#b0c5c7" stroke-width="1.51"/><path d="M-122,213L-53,281L-47,203Z" fill="#bec8cb" stroke="#bec8cb" stroke-width="1.51"/><path d="M-52,-119L52,-99L164,-101Z" fill="#c1c6c9" stroke="#c1c6c9" stroke-width="1.51"/><path d="M164,-101L52,-99L165,-21Z" fill="#c1c7ca" stroke="#c1c7ca" stroke-width="1.51"/><path d="M-128,303L-141,388L-41,394Z" fill="#b9c8cb" stroke="#b9c8cb" stroke-width="1.51"/><path d="M1471,6L1390,-107L1364,-18Z" fill="#a2bec3" stroke="#a2bec3" stroke-width="1.51"/><path d="M1364,-18L1390,-107L1290,-96Z" fill="#a3bec2" stroke="#a3bec2" stroke-width="1.51"/><path d="M1290,-96L1390,-107L1162,-116Z" fill="#a3bdc1" stroke="#a3bdc1" stroke-width="1.51"/><path d="M1471,6L1364,104L1481,111Z" fill="#a3bfc6" stroke="#a3bfc6" stroke-width="1.51"/><path d="M1584,85L1471,6L1481,111Z" fill="#a3bfc6" stroke="#a3bfc6" stroke-width="1.51"/><path d="M1585,608L1482,608L1568,687Z" fill="#8bb9c1" stroke="#8bb9c1" stroke-width="1.51"/><path d="M1561,384L1680,395L1570,313Z" fill="#9ac1c8" stroke="#9ac1c8" stroke-width="1.51"/><path d="M1568,687L1482,608L1485,711Z" fill="#89b8c0" stroke="#89b8c0" stroke-width="1.51"/><path d="M1466,991L1468,903L1386,915Z" fill="#82b5bf" stroke="#82b5bf" stroke-width="1.51"/><path d="M-128,303L-135,89L-141,388Z" fill="#bdc8ca" stroke="#bdc8ca" stroke-width="1.51"/><path d="M-135,89L-122,213L-47,203Z" fill="#c0c7cb" stroke="#c0c7cb" stroke-width="1.51"/><path d="M-135,89L-47,203L-34,85Z" fill="#c1c8cb" stroke="#c1c8cb" stroke-width="1.51"/><path d="M1568,687L1485,711L1571,806Z" fill="#84b5be" stroke="#84b5be" stroke-width="1.51"/><path d="M1571,806L1485,711L1468,798Z" fill="#83b4bd" stroke="#83b4bd" stroke-width="1.51"/><path d="M-143,818L-123,691L-126,595Z" fill="#a6bec2" stroke="#a6bec2" stroke-width="1.51"/><path d="M-126,595L-123,691L-32,613Z" fill="#abc1c5" stroke="#abc1c5" stroke-width="1.51"/><path d="M-40,800L-49,904L47,801Z" fill="#a3bdc3" stroke="#a3bdc3" stroke-width="1.51"/><path d="M52,-99L-46,12L70,10Z" fill="#c0c7ca" stroke="#c0c7ca" stroke-width="1.51"/><path d="M-143,818L-49,904L-40,800Z" fill="#a3bdc2" stroke="#a3bdc2" stroke-width="1.51"/><path d="M74,1001L47,1118L166,1088Z" fill="#a2c0c6" stroke="#a2c0c6" stroke-width="1.51"/><path d="M1570,313L1593,210L1480,284Z" fill="#9ec1c7" stroke="#9ec1c7" stroke-width="1.51"/><path d="M1673,297L1593,210L1570,313Z" fill="#9dc1c8" stroke="#9dc1c8" stroke-width="1.51"/><path d="M1080,1122L1373,1093L1277,1090Z" fill="#83b5be" stroke="#83b5be" stroke-width="1.51"/><path d="M1277,1090L1373,1093L1280,998Z" fill="#82b5bf" stroke="#82b5bf" stroke-width="1.51"/><path d="M1387,992L1466,991L1386,915Z" fill="#82b5be" stroke="#82b5be" stroke-width="1.51"/><path d="M1567,893L1468,798L1468,903Z" fill="#83b5be" stroke="#83b5be" stroke-width="1.51"/><path d="M1567,893L1571,806L1468,798Z" fill="#83b5be" stroke="#83b5be" stroke-width="1.51"/><path d="M1668,613L1591,500L1585,608Z" fill="#8ebcc4" stroke="#8ebcc4" stroke-width="1.51"/><path d="M1475,1097L1466,991L1387,992Z" fill="#82b6bf" stroke="#82b6bf" stroke-width="1.51"/><path d="M-127,6L-135,89L-46,12Z" fill="#c1c6c9" stroke="#c1c6c9" stroke-width="1.51"/><path d="M-46,12L-135,89L-34,85Z" fill="#c1c7ca" stroke="#c1c7ca" stroke-width="1.51"/><path d="M-122,213L-135,89L-128,303Z" fill="#bfc7cb" stroke="#bfc7cb" stroke-width="1.51"/><path d="M1471,6L1482,-91L1390,-107Z" fill="#a2bec4" stroke="#a2bec4" stroke-width="1.51"/><path d="M1582,-12L1482,-91L1471,6Z" fill="#a2bec4" stroke="#a2bec4" stroke-width="1.51"/><path d="M1593,210L1584,85L1483,193Z" fill="#a2c0c8" stroke="#a2c0c8" stroke-width="1.51"/><path d="M-154,907L-143,818L-134,506Z" fill="#a3bdc1" stroke="#a3bdc1" stroke-width="1.51"/><path d="M-134,506L-143,818L-126,595Z" fill="#aac1c4" stroke="#aac1c4" stroke-width="1.51"/><path d="M-123,691L-143,818L-40,800Z" fill="#a3bcc1" stroke="#a3bcc1" stroke-width="1.51"/><path d="M1591,500L1680,395L1561,384Z" fill="#97c1c7" stroke="#97c1c7" stroke-width="1.51"/><path d="M1593,210L1671,102L1584,85Z" fill="#a2c1c8" stroke="#a2c1c8" stroke-width="1.51"/><path d="M1668,613L1668,491L1591,500Z" fill="#91bec5" stroke="#91bec5" stroke-width="1.51"/><path d="M1668,613L1585,608L1568,687Z" fill="#8abac2" stroke="#8abac2" stroke-width="1.51"/><path d="M-139,1018L-39,1017L-49,904Z" fill="#a2bec4" stroke="#a2bec4" stroke-width="1.51"/><path d="M-49,904L-39,1017L74,1001Z" fill="#a2bec4" stroke="#a2bec4" stroke-width="1.51"/><path d="M-39,1017L47,1118L74,1001Z" fill="#a2bfc6" stroke="#a2bfc6" stroke-width="1.51"/><path d="M166,1088L47,1118L267,1109Z" fill="#a2c0c7" stroke="#a2c0c7" stroke-width="1.51"/><path d="M267,1109L47,1118L363,1111Z" fill="#a2c0c8" stroke="#a2c0c8" stroke-width="1.51"/><path d="M465,1116L47,1118L661,1120Z" fill="#9fc1c8" stroke="#9fc1c8" stroke-width="1.51"/><path d="M661,1120L47,1118L1080,1122Z" fill="#9ac1c8" stroke="#9ac1c8" stroke-width="1.51"/><path d="M-52,-119L-127,6L-46,12Z" fill="#c0c5c8" stroke="#c0c5c8" stroke-width="1.51"/><path d="M1676,714L1668,613L1568,687Z" fill="#88b9c1" stroke="#88b9c1" stroke-width="1.51"/><path d="M1466,991L1567,893L1468,903Z" fill="#82b5bf" stroke="#82b5bf" stroke-width="1.51"/><path d="M1591,1012L1567,893L1466,991Z" fill="#82b6bf" stroke="#82b6bf" stroke-width="1.51"/><path d="M52,-99L-52,-119L-46,12Z" fill="#c0c6c8" stroke="#c0c6c8" stroke-width="1.51"/><path d="M259,-113L-52,-119L164,-101Z" fill="#c1c6ca" stroke="#c1c6ca" stroke-width="1.51"/><path d="M775,-122L-52,-119L259,-113Z" fill="#bfc7cb" stroke="#bfc7cb" stroke-width="1.51"/><path d="M1668,491L1680,395L1591,500Z" fill="#95c1c7" stroke="#95c1c7" stroke-width="1.51"/><path d="M1668,491L1668,613L1680,395Z" fill="#93bfc6" stroke="#93bfc6" stroke-width="1.51"/><path d="M1676,714L1568,687L1660,789Z" fill="#84b6be" stroke="#84b6be" stroke-width="1.51"/><path d="M1680,395L1673,297L1570,313Z" fill="#9bc1c8" stroke="#9bc1c8" stroke-width="1.51"/><path d="M1584,85L1582,-12L1471,6Z" fill="#a3bfc6" stroke="#a3bfc6" stroke-width="1.51"/><path d="M1674,-2L1582,-12L1584,85Z" fill="#a2c0c6" stroke="#a2c0c6" stroke-width="1.51"/><path d="M1673,297L1675,184L1593,210Z" fill="#9fc1c8" stroke="#9fc1c8" stroke-width="1.51"/><path d="M1680,395L1675,184L1673,297Z" fill="#9dc1c8" stroke="#9dc1c8" stroke-width="1.51"/><path d="M-39,1017L-50,1108L47,1118Z" fill="#a2bfc5" stroke="#a2bfc5" stroke-width="1.51"/><path d="M-143,818L-154,907L-49,904Z" fill="#a3bdc2" stroke="#a3bdc2" stroke-width="1.51"/><path d="M-141,388L-154,907L-134,506Z" fill="#adc3c6" stroke="#adc3c6" stroke-width="1.51"/><path d="M-135,89L-154,907L-141,388Z" fill="#b5c8c9" stroke="#b5c8c9" stroke-width="1.51"/><path d="M1668,613L1676,714L1680,395Z" fill="#8ebcc4" stroke="#8ebcc4" stroke-width="1.51"/><path d="M1660,789L1568,687L1571,806Z" fill="#83b5be" stroke="#83b5be" stroke-width="1.51"/><path d="M1669,901L1660,789L1571,806Z" fill="#82b5bf" stroke="#82b5bf" stroke-width="1.51"/><path d="M1373,1093L1475,1097L1387,992Z" fill="#82b6bf" stroke="#82b6bf" stroke-width="1.51"/><path d="M1080,1122L1475,1097L1373,1093Z" fill="#82b5bf" stroke="#82b5bf" stroke-width="1.51"/><path d="M1669,901L1571,806L1567,893Z" fill="#82b6bf" stroke="#82b6bf" stroke-width="1.51"/><path d="M1582,-12L1574,-95L1482,-91Z" fill="#a2bec4" stroke="#a2bec4" stroke-width="1.51"/><path d="M1482,-91L1574,-95L1390,-107Z" fill="#a2bec3" stroke="#a2bec3" stroke-width="1.51"/><path d="M1690,-97L1574,-95L1582,-12Z" fill="#a2bfc5" stroke="#a2bfc5" stroke-width="1.51"/><path d="M1675,184L1671,102L1593,210Z" fill="#a2c1c8" stroke="#a2c1c8" stroke-width="1.51"/><path d="M-52,-119L-123,-117L-127,6Z" fill="#c0c5c7" stroke="#c0c5c7" stroke-width="1.51"/><path d="M-127,6L-123,-117L-135,89Z" fill="#c1c6c8" stroke="#c1c6c8" stroke-width="1.51"/><path d="M-139,1018L-50,1108L-39,1017Z" fill="#a2bec5" stroke="#a2bec5" stroke-width="1.51"/><path d="M-154,907L-139,1018L-49,904Z" fill="#a2bec3" stroke="#a2bec3" stroke-width="1.51"/><path d="M1475,1097L1591,1012L1466,991Z" fill="#82b6c0" stroke="#82b6c0" stroke-width="1.51"/><path d="M1591,1012L1669,901L1567,893Z" fill="#82b6c0" stroke="#82b6c0" stroke-width="1.51"/><path d="M1660,789L1669,901L1676,714Z" fill="#83b5be" stroke="#83b5be" stroke-width="1.51"/><path d="M1671,102L1674,-2L1584,85Z" fill="#a2c0c7" stroke="#a2c0c7" stroke-width="1.51"/><path d="M1690,-97L1674,-2L1671,102Z" fill="#a2bfc6" stroke="#a2bfc6" stroke-width="1.51"/><path d="M1690,-97L1671,102L1675,184Z" fill="#a2c0c7" stroke="#a2c0c7" stroke-width="1.51"/><path d="M1591,1012L1684,992L1669,901Z" fill="#82b6c0" stroke="#82b6c0" stroke-width="1.51"/><path d="M1475,1097L1583,1093L1591,1012Z" fill="#82b7c0" stroke="#82b7c0" stroke-width="1.51"/><path d="M1690,1116L1583,1093L1475,1097Z" fill="#81b7c0" stroke="#81b7c0" stroke-width="1.51"/><path d="M-154,907L-149,1101L-139,1018Z" fill="#a2bec3" stroke="#a2bec3" stroke-width="1.51"/><path d="M-139,1018L-149,1101L-50,1108Z" fill="#a2bec4" stroke="#a2bec4" stroke-width="1.51"/><path d="M-50,1108L-149,1101L47,1118Z" fill="#a2bfc5" stroke="#a2bfc5" stroke-width="1.51"/><path d="M1690,1116L1684,992L1591,1012Z" fill="#81b7c1" stroke="#81b7c1" stroke-width="1.51"/><path d="M1669,901L1684,992L1676,714Z" fill="#82b6bf" stroke="#82b6bf" stroke-width="1.51"/><path d="M1676,714L1684,992L1680,395Z" fill="#86b7c0" stroke="#86b7c0" stroke-width="1.51"/><path d="M1674,-2L1690,-97L1582,-12Z" fill="#a2bfc5" stroke="#a2bfc5" stroke-width="1.51"/><path d="M1574,-95L1690,-97L1390,-107Z" fill="#a2bec4" stroke="#a2bec4" stroke-width="1.51"/><path d="M1390,-107L1690,-97L1162,-116Z" fill="#a2bdc3" stroke="#a2bdc3" stroke-width="1.51"/><path d="M1680,395L1690,-97L1675,184Z" fill="#a2c1c8" stroke="#a2c1c8" stroke-width="1.51"/><path d="M1690,1116L1690,-97L1680,395Z" fill="#95c0c7" stroke="#95c0c7" stroke-width="1.51"/><path d="M1684,992L1690,1116L1680,395Z" fill="#82b5bf" stroke="#82b5bf" stroke-width="1.51"/><path d="M1583,1093L1690,1116L1591,1012Z" fill="#81b7c1" stroke="#81b7c1" stroke-width="1.51"/><path d="M1080,1122L1690,1116L1475,1097Z" fill="#82b6bf" stroke="#82b6bf" stroke-width="1.51"/></svg>