<svg xmlns="http://www.w3.org/2000/svg" width="230" height="81.031" viewBox="0 0 230 81.031">
  <metadata><?xpacket begin="﻿" id="W5M0MpCehiHzreSzNTczkc9d"?>
<x:xmpmeta xmlns:x="adobe:ns:meta/" x:xmptk="Adobe XMP Core 5.6-c138 79.159824, 2016/09/14-01:09:01  ">
   <rdf:RDF xmlns:rdf="http://www.w3.org/1999/02/22-rdf-syntax-ns#">
      <rdf:Description rdf:about=""/>
   </rdf:RDF>
</x:xmpmeta>
                      
<?xpacket end="w"?></metadata>
<defs>
    <style>
      .cls-1 {
        fill: #00a5bb;
        fill-rule: evenodd;
      }
    </style>
  </defs>
  <path id="形状_1" data-name="形状 1" class="cls-1" d="M1623.23,71.083q-1.86-.489-3.72-0.97c-2.93-.76-5.96-1.546-8.92-2.366a2.3,2.3,0,0,0-2.54.719c-2.58,2.65-5.46,5.541-9.04,9.1a1.981,1.981,0,0,0-.47,2.168c1.02,3.639,2.2,7.873,3.27,12.067a2.763,2.763,0,0,0,2.19,2.275c2.8,0.7,5.65,1.46,8.39,2.193l1.57,0.417c0.56,0.151,1.14.327,1.69,0.5,0.27,0.081.53,0.161,0.79,0.239l0.05,0.013a1.557,1.557,0,0,0,1.67-.737c0.06-.077.13-0.151,0.18-0.209l1.56-1.563c2.42-2.433,4.92-4.949,7.4-7.408a2,2,0,0,0,.65-2.124c-1.3-4.727-2.45-9.009-3.5-13.088A1.558,1.558,0,0,0,1623.23,71.083Zm-0.04,14.924-0.1.1c-0.91.921-1.85,1.85-2.75,2.749-1.25,1.25-2.55,2.542-3.81,3.835a0.951,0.951,0,0,1-1.13.269c-3.06-.848-6.17-1.69-9.26-2.5a0.847,0.847,0,0,1-.76-0.8c-0.73-3.063-1.57-6.215-2.51-9.37a0.907,0.907,0,0,1,.21-1.116c2.57-2.583,4.86-4.913,7.01-7.121a0.609,0.609,0,0,1,.47-0.217,1.526,1.526,0,0,1,.39.065l1.78,0.5c2.44,0.684,4.97,1.391,7.47,2.05a1.222,1.222,0,0,1,1.03,1.187c0.44,2.053,1.01,4.105,1.57,6.09,0.22,0.8.45,1.623,0.66,2.436,0.07,0.238.12,0.484,0.16,0.663a1.543,1.543,0,0,1,.04.157A1.034,1.034,0,0,1,1623.19,86.007Zm-23.08,8.64a2.418,2.418,0,0,0,.75-2.6l-0.6-2.143c-0.82-2.96-1.68-6.021-2.44-9.047a2.909,2.909,0,0,0-2.32-2.378c-3.28-.826-7.14-1.823-10.93-2.954a2.508,2.508,0,0,0-2.87.789c-1.33,1.394-2.71,2.795-4.04,4.149-1.17,1.188-2.37,2.416-3.55,3.637a2.558,2.558,0,0,1-.28.212,1.568,1.568,0,0,0-.84,1.132,1.522,1.522,0,0,0,.6,1.233,1.506,1.506,0,0,0,1.24.523,1.616,1.616,0,0,0,1.09-.926A2.443,2.443,0,0,1,1576.1,86c1.51-1.452,3.01-2.965,4.46-4.428,0.78-.794,1.6-1.615,2.4-2.415,0.07-.073.14-0.151,0.21-0.232a0.936,0.936,0,0,1,.68-0.435,2.26,2.26,0,0,1,.45.033,0.894,0.894,0,0,1,.2.024c1.16,0.314,2.31.63,3.46,0.947,2.17,0.6,4.42,1.214,6.64,1.8,0.34,0.091.4,0.218,0.57,0.826v0.018c0.81,3.042,1.73,6.49,2.69,9.851a1.073,1.073,0,0,1-.42,1.262c-1.11,1.1-2.24,2.23-3.33,3.321-1.3,1.312-2.65,2.668-4,3.983l-0.11.112a1.817,1.817,0,0,0-.75,1.286,1.586,1.586,0,0,0,.6,1.137,1.481,1.481,0,0,0,1,.473c0.03,0,.07,0,0.11-0.005a1.513,1.513,0,0,0,1.02-.764,1.315,1.315,0,0,1,.17-0.221c1.09-1.074,2.18-2.176,3.24-3.242C1596.93,97.783,1598.52,96.185,1600.11,94.647Zm8.91-31.125,0.46,1.756a1.854,1.854,0,0,0,1.36,1.543c3.68,0.952,7.59,1.989,11.97,3.169a2.768,2.768,0,0,0,.73.107,2.091,2.091,0,0,0,1.55-.7c1.31-1.338,2.67-2.683,3.98-3.984,1.34-1.337,2.73-2.72,4.09-4.1a1.227,1.227,0,0,1,.2-0.162,1.555,1.555,0,0,0,.79-1.081,1.429,1.429,0,0,0-.48-1.1,1.557,1.557,0,0,0-1.11-.55h0a2.031,2.031,0,0,0-1.4.8l-0.04.038q-2.55,2.573-5.11,5.137l-2.21,2.223c-0.07.071-.14,0.148-0.21,0.226-0.24.278-.26,0.272-0.33,0.254l-0.07-.017-0.16-.02a1.385,1.385,0,0,1-.15-0.023c-0.98-.268-1.96-0.539-2.93-0.81-2.41-.667-4.89-1.356-7.35-2a1.065,1.065,0,0,1-.74-0.96c-0.45-1.665-.89-3.363-1.32-5.006-0.38-1.479-.78-3.009-1.19-4.512a1.52,1.52,0,0,1,.53-1.729c1.83-1.733,3.63-3.543,5.37-5.293q1.005-1.006,2.01-2.008l0.09-.093a1.508,1.508,0,0,0,.6-1.081,1.329,1.329,0,0,0-.49-0.972,1.424,1.424,0,0,0-2.27-.011c-2.4,2.489-4.99,5.116-8.13,8.27a2.522,2.522,0,0,0-.69,2.741C1607.3,56.866,1608.18,60.249,1609.02,63.522ZM1652.87,78.3a1.529,1.529,0,0,0-1.24-.535,1.607,1.607,0,0,0-1.1.912c-0.07.1-.15,0.229-0.19,0.271-2.14,2.06-4.39,4.323-7.11,7.119a1.069,1.069,0,0,1-1.25.421c-3.01-.862-6.42-1.841-9.77-2.683a1.067,1.067,0,0,1-.96-0.894c-0.32-1.209-.65-2.415-0.98-3.623-0.52-1.928-1.06-3.922-1.56-5.889a1.481,1.481,0,0,1,.25-1.7c1.49-1.442,2.98-2.932,4.42-4.373,1-1,2.03-2.039,3.06-3.048,0.06-.058.13-0.116,0.2-0.177a1.4,1.4,0,0,0,.63-0.968,1.421,1.421,0,0,0-.45-1.047,1.622,1.622,0,0,0-1.12-.61,1.822,1.822,0,0,0-1.27.709c-2.52,2.561-5.24,5.277-8.32,8.3a2.005,2.005,0,0,0-.61,2.144c1,3.561,2.06,7.447,3.24,11.882a2.077,2.077,0,0,0,1.45,1.682c3.08,0.835,6.1,1.668,9.31,2.55l3.14,0.865a1.145,1.145,0,0,0,.45.1,1.825,1.825,0,0,0,1.25-.756,2.683,2.683,0,0,1,.19-0.208l1.18-1.2c2.17-2.19,4.42-4.454,6.61-6.7a1.813,1.813,0,0,1,.29-0.209,1.526,1.526,0,0,0,.86-1.09A1.572,1.572,0,0,0,1652.87,78.3Zm-32.65,33.517c-0.06-.35-0.1-0.581-0.16-0.822l-0.9-3.247c-0.69-2.489-1.41-5.063-2.04-7.61a2.561,2.561,0,0,0-2.1-2.1l-0.93-.243c-3.34-.874-6.8-1.778-10.16-2.767a2.564,2.564,0,0,0-2.88.778c-1.49,1.543-3.04,3.091-4.53,4.588-1.08,1.073-2.18,2.182-3.27,3.282a2.336,2.336,0,0,1-.2.176,1.581,1.581,0,0,0-.72,1.106,1.445,1.445,0,0,0,.51,1.095,1.5,1.5,0,0,0,1.13.537,1.724,1.724,0,0,0,1.19-.747c0.07-.081.13-0.158,0.19-0.219,1.46-1.45,2.93-2.931,4.36-4.363,0.95-.957,1.91-1.914,2.86-2.869l0.15-.15a0.691,0.691,0,0,1,.87-0.341c3.45,1.031,6.97,1.943,9.96,2.7a1.306,1.306,0,0,1,1.07,1.218c0.79,3.26,1.57,6.445,2.47,9.555a1.236,1.236,0,0,1-.49,1.526c-1.5,1.455-3.01,2.955-4.47,4.406-0.95.944-1.93,1.921-2.9,2.874a1.726,1.726,0,0,0-.65,1.21,1.5,1.5,0,0,0,.52,1.1,1.443,1.443,0,0,0,1.02.507h0a1.584,1.584,0,0,0,1.11-.6c2.54-2.621,5.23-5.376,8.22-8.421,0.07-.073.15-0.144,0.22-0.212a1.456,1.456,0,0,0,.68-1.229C1620.29,112.235,1620.25,112.005,1620.22,111.814Zm21.17-20.936c-0.07-.015-0.13-0.031-0.2-0.048q-5.55-1.535-11.11-3.063a2.014,2.014,0,0,0-2.18.438c-1.42,1.437-2.86,2.889-4.26,4.293-1.44,1.451-2.94,2.951-4.4,4.437l-0.15.152a1.718,1.718,0,0,0-.71,1.756c0.79,3.007,1.57,6.012,2.36,9.017l0.8,3.073a1.273,1.273,0,0,0,1.35,1.037,2.561,2.561,0,0,0,.39-0.03,1.369,1.369,0,0,0,1.12-1.754l-0.03-.139c-0.03-.094-0.09-0.321-0.15-0.549-0.24-.891-0.48-1.782-0.71-2.674-0.58-2.195-1.19-4.464-1.84-6.682a1.9,1.9,0,0,1,.58-2.191c2.04-1.983,4.22-4.166,6.84-6.871a1.016,1.016,0,0,1,1.27-.255c1.97,0.568,3.97,1.106,5.91,1.626,1.38,0.371,2.81.754,4.21,1.145l0.05,0.015a1.368,1.368,0,0,0,2-.935,1.413,1.413,0,0,0-.06-1.155A1.511,1.511,0,0,0,1641.39,90.878ZM1585.12,74.03c3.9,1.008,7.9,2.135,11.43,3.129a2.449,2.449,0,0,0,.66.1,1.8,1.8,0,0,0,1.32-.6c2.5-2.525,5.07-5.071,7.56-7.534l1.03-1.019a2.62,2.62,0,0,0,.77-2.785c-0.48-1.746-.95-3.529-1.4-5.254-0.44-1.678-.9-3.413-1.37-5.115a3.5,3.5,0,0,1-.05-0.415,1.852,1.852,0,0,0-.59-1.431,1.532,1.532,0,0,0-1.3-.177,1.441,1.441,0,0,0-1.03.661,1.589,1.589,0,0,0,.03,1.353,1.826,1.826,0,0,1,.1.42,1.143,1.143,0,0,0,.16.83c0.02,0.048.06,0.12,0.07,0.146,0.66,2.469,1.31,4.938,2,7.531l0.55,2.079,0.04,0.092a1.677,1.677,0,0,1-.41.44c-0.1.093-.21,0.19-0.31,0.294-0.9.918-1.82,1.843-2.72,2.736-1.31,1.313-2.66,2.67-3.97,4.042a1.535,1.535,0,0,1-1.87.436c-2.11-.617-4.27-1.191-6.36-1.746-1.18-.312-2.4-0.635-3.59-0.963-0.05-.014-0.1-0.03-0.16-0.045a1.426,1.426,0,0,0-1.17.008,1.358,1.358,0,0,0-.6.9,1.6,1.6,0,0,0,.06,1.208A1.69,1.69,0,0,0,1585.12,74.03ZM1705.26,80.4a0.668,0.668,0,0,0-.02-0.14h0.02A14.427,14.427,0,0,1,1709.48,70a14.687,14.687,0,0,1,4.59-3.1,14.276,14.276,0,0,1,11.17,0,14.484,14.484,0,0,1,4.57,3.1,14.23,14.23,0,0,1,2.16,2.83l0.01-.007a2.065,2.065,0,0,0,3.97-.819,2.126,2.126,0,0,0-.16-0.8l0.01,0c-0.03-.049-0.06-0.095-0.09-0.144a2.474,2.474,0,0,0-.16-0.274,18.336,18.336,0,0,0-8.72-7.725,17.773,17.773,0,0,0-7.17-1.469,17.954,17.954,0,0,0-7.23,1.469,18.674,18.674,0,0,0-9.85,9.954,18.3,18.3,0,0,0-1.45,7.253h0.01c0,0.047-.01.092-0.01,0.14A2.065,2.065,0,1,0,1705.26,80.4Zm30.81-2.227a2.072,2.072,0,0,0-2.06,2.086v0.008a14.44,14.44,0,0,1-1.12,5.633,14.856,14.856,0,0,1-3.08,4.645,14.266,14.266,0,0,1-4.57,3.128,14.272,14.272,0,0,1-11.17,0,14.463,14.463,0,0,1-4.59-3.128,14.279,14.279,0,0,1-2.14-2.792l-0.03.01a2.057,2.057,0,0,0-3.96.81,2.19,2.19,0,0,0,.16.814l-0.02.01a18.41,18.41,0,0,0,3.06,4.112,18.62,18.62,0,0,0,5.88,4.005,17.954,17.954,0,0,0,7.23,1.469,17.773,17.773,0,0,0,7.17-1.469,18.552,18.552,0,0,0,5.89-4.005,18.972,18.972,0,0,0,3.97-5.949,18.59,18.59,0,0,0,1.45-7.3A2.08,2.08,0,0,0,1736.07,78.174ZM1671.25,69.9a14.7,14.7,0,0,1,10.32-4.148,14.269,14.269,0,0,1,5.53,1.09,14.448,14.448,0,0,1,4.74,3.224,2.026,2.026,0,0,0,2.91,0,1.942,1.942,0,0,0,.66-1.469,2.1,2.1,0,0,0-.66-1.517,18.248,18.248,0,0,0-13.18-5.5,18.73,18.73,0,0,0-13.23,5.333,18.414,18.414,0,0,0-4.01,5.878,17.924,17.924,0,0,0-1.48,7.276,18.377,18.377,0,0,0,1.48,7.371,18.967,18.967,0,0,0,9.94,10.049,17.954,17.954,0,0,0,7.3,1.493,18.188,18.188,0,0,0,7.13-1.422,18.6,18.6,0,0,0,6.05-4.124,1.965,1.965,0,0,0,0-2.938,1.926,1.926,0,0,0-2.91,0,14.777,14.777,0,0,1-4.74,3.175,14.247,14.247,0,0,1-5.53,1.091,13.946,13.946,0,0,1-5.66-1.162,14.722,14.722,0,0,1-7.74-7.821,14.439,14.439,0,0,1-1.15-5.712,14.091,14.091,0,0,1,1.13-5.641A13.914,13.914,0,0,1,1671.25,69.9Zm101.04-6.565a2,2,0,0,0-.61-1.47,2.04,2.04,0,0,0-1.5-.616,2,2,0,0,0-1.17.355,1.951,1.951,0,0,0-.75.972l-11.45,28.677-5.75-14.335,0.02-.007-1.55-3.885a2,2,0,0,0-.78-0.972,2.127,2.127,0,0,0-1.19-.355,1.985,1.985,0,0,0-1.46.616,2,2,0,0,0-.61,1.47,2.129,2.129,0,0,0,.14.806l0.1,0.248-0.01.006,9.17,22.808a1.948,1.948,0,0,0,.75.972,2.106,2.106,0,0,0,2.34,0,1.948,1.948,0,0,0,.75-0.972l13.37-33.512A1.56,1.56,0,0,0,1772.29,63.338Zm30.54,32.707q-3.57-8.437-7.09-16.756t-7.08-16.756a1.219,1.219,0,0,0-.14-0.248c-0.02-.041-0.04-0.082-0.06-0.119a1.864,1.864,0,0,0-.55-0.581,2.037,2.037,0,0,0-1.13-.332h-0.03c-0.03,0-.05.006-0.07,0.007a1.873,1.873,0,0,0-.29.029c-0.04.007-.08,0.015-0.12,0.024a2.07,2.07,0,0,0-.66.272,0.613,0.613,0,0,0-.09.085,1.836,1.836,0,0,0-.29.259,0.9,0.9,0,0,0-.1.126,2.125,2.125,0,0,0-.16.239,1.73,1.73,0,0,0-.19.438,2,2,0,0,0,.04,1.36l0.06,0.137c0.63,1.5,1.27,3.005,1.9,4.514l0.03,0.051,4.1,9.742,2.58,6.134h-13.46l4.48-10.572-0.02-.007a2.289,2.289,0,0,0,.11-0.646,2.082,2.082,0,0,0-4.08-.611l-0.01,0-5.55,13.121-4.22,10.1a1.932,1.932,0,0,0-.05,1.611,2.021,2.021,0,0,0,1.13,1.138,1.87,1.87,0,0,0,1.59.047,1.989,1.989,0,0,0,1.13-1.137l3.71-8.817h17.02l3.71,8.817a1.859,1.859,0,0,0,.77.948,2.179,2.179,0,0,0,1.15.332,1.73,1.73,0,0,0,.8-0.189,2.021,2.021,0,0,0,1.13-1.138A2.05,2.05,0,0,0,1802.83,96.045ZM1671.9,117.452a4.7,4.7,0,0,1-1.91-.39,5.007,5.007,0,0,1-1.55-1.058,4.91,4.91,0,0,1-1.04-1.567,4.781,4.781,0,0,1-.39-1.926,4.661,4.661,0,0,1,.39-1.9,4.727,4.727,0,0,1,1.04-1.535,4.97,4.97,0,0,1,5.32-1.028,4.693,4.693,0,0,1,1.58,1.072,0.522,0.522,0,0,1,.17.4,0.487,0.487,0,0,1-.17.383,0.529,0.529,0,0,1-.76,0,3.757,3.757,0,0,0-1.24-.841,3.7,3.7,0,0,0-1.44-.286,3.807,3.807,0,0,0-1.49.291,3.982,3.982,0,0,0-1.21.792,3.64,3.64,0,0,0-1.1,2.656,3.745,3.745,0,0,0,.3,1.492,3.8,3.8,0,0,0,2.02,2.043,3.648,3.648,0,0,0,1.48.3,3.718,3.718,0,0,0,1.44-.285,3.865,3.865,0,0,0,1.24-.83,0.5,0.5,0,0,1,.76,0,0.519,0.519,0,0,1,0,.768A4.787,4.787,0,0,1,1671.9,117.452Zm15.85,0a4.615,4.615,0,0,1-1.88-.384,4.9,4.9,0,0,1-1.54-1.046,5.01,5.01,0,0,1-1.04-1.554,4.942,4.942,0,0,1,0-3.8,5.01,5.01,0,0,1,1.04-1.554,4.876,4.876,0,0,1,1.54-1.045,4.783,4.783,0,0,1,3.76,0,4.876,4.876,0,0,1,1.54,1.045,4.983,4.983,0,0,1,1.03,1.554,4.942,4.942,0,0,1,0,3.8,4.983,4.983,0,0,1-1.03,1.554,4.9,4.9,0,0,1-1.54,1.046A4.649,4.649,0,0,1,1687.75,117.452Zm0-8.68a3.6,3.6,0,0,0-1.45.3,3.947,3.947,0,0,0-1.21.812,3.8,3.8,0,0,0-.8,4.153,3.74,3.74,0,0,0,.8,1.214,3.894,3.894,0,0,0,1.21.818,3.6,3.6,0,0,0,1.45.3,3.647,3.647,0,0,0,1.46-.3,3.738,3.738,0,0,0,1.2-.818,3.909,3.909,0,0,0,.8-1.214,3.828,3.828,0,0,0-.8-4.153,3.787,3.787,0,0,0-1.2-.812A3.647,3.647,0,0,0,1687.75,108.772Zm19.61-.42-3.49,8.753a0.537,0.537,0,0,1-.51.347,0.517,0.517,0,0,1-.3-0.093,0.527,0.527,0,0,1-.2-0.254l-3.5-8.753a0.457,0.457,0,0,1-.04-0.212,0.548,0.548,0,0,1,.54-0.543,0.548,0.548,0,0,1,.31.093,0.469,0.469,0,0,1,.2.253l2.99,7.49,2.99-7.49a0.52,0.52,0,0,1,.2-0.253,0.526,0.526,0,0,1,.31-0.093,0.537,0.537,0,0,1,.39.161,0.511,0.511,0,0,1,.16.382A0.455,0.455,0,0,1,1707.36,108.352ZM1721,117.4a0.5,0.5,0,0,1-.21.049,0.542,0.542,0,0,1-.3-0.087,0.515,0.515,0,0,1-.21-0.247l-0.96-2.3h-4.45l-0.97,2.3a0.521,0.521,0,0,1-.29.3,0.505,0.505,0,0,1-.42-0.011,0.5,0.5,0,0,1-.29-0.3,0.477,0.477,0,0,1,.01-0.42l1.1-2.638,2.59-6.116a0.477,0.477,0,0,1,.19-0.248,0.551,0.551,0,0,1,.31-0.086,0.533,0.533,0,0,1,.29.086,0.494,0.494,0,0,1,.2.248q0.93,2.2,1.85,4.376t1.85,4.378a0.513,0.513,0,0,1,0,.42A0.557,0.557,0,0,1,1721,117.4Zm-3.9-7.851-1.76,4.161h3.51Zm15.17,7.9H1729a0.5,0.5,0,0,1-.38-0.16,0.516,0.516,0,0,1-.16-0.385v-8.679a0.541,0.541,0,0,1,.92-0.39,0.547,0.547,0,0,1,.16.39v8.134h2.73a0.538,0.538,0,0,1,.39.162,0.541,0.541,0,0,1,0,.768A0.54,0.54,0,0,1,1732.27,117.452Zm12.18,0h-4.22a0.54,0.54,0,0,1-.39-0.16,0.516,0.516,0,0,1-.16-0.385v-8.679a0.517,0.517,0,0,1,.16-0.385,0.54,0.54,0,0,1,.39-0.16h4.22a0.54,0.54,0,0,1,.39.16,0.517,0.517,0,0,1,.16.385,0.509,0.509,0,0,1-.16.39,0.551,0.551,0,0,1-.39.154h-3.68v3.157h3.1a0.538,0.538,0,0,1,.54.546,0.506,0.506,0,0,1-.16.382,0.5,0.5,0,0,1-.38.163h-3.1v3.331h3.68a0.54,0.54,0,0,1,.39.16,0.526,0.526,0,0,1,.16.4,0.516,0.516,0,0,1-.16.385A0.54,0.54,0,0,1,1744.45,117.452Zm13.75,0a0.519,0.519,0,0,1-.47-0.26l-4.42-7.082v6.8a0.516,0.516,0,0,1-.16.385,0.531,0.531,0,0,1-.76,0,0.516,0.516,0,0,1-.16-0.385v-8.679a0.517,0.517,0,0,1,.16-0.385,0.5,0.5,0,0,1,.38-0.16,0.508,0.508,0,0,1,.46.248l4.43,7.082v-6.785a0.549,0.549,0,0,1,.15-0.385,0.509,0.509,0,0,1,.39-0.16,0.534,0.534,0,0,1,.38.16,0.558,0.558,0,0,1,.16.385v8.679a0.556,0.556,0,0,1-.16.385A0.534,0.534,0,0,1,1758.2,117.452Zm13.13-8.68h-1.98v8.135a0.556,0.556,0,0,1-.16.385,0.534,0.534,0,0,1-.38.16,0.53,0.53,0,0,1-.55-0.545v-8.135h-1.99a0.528,0.528,0,0,1-.38-0.154,0.547,0.547,0,0,1-.16-0.39,0.558,0.558,0,0,1,.16-0.385,0.518,0.518,0,0,1,.38-0.16h5.06a0.5,0.5,0,0,1,.38.16,0.517,0.517,0,0,1,.16.385A0.536,0.536,0,0,1,1771.33,108.772Zm7.61,8.68a0.686,0.686,0,0,1-.51-0.217,0.746,0.746,0,0,1-.01-1.027,0.724,0.724,0,0,1,.52-0.2,0.707,0.707,0,0,1,.72.717,0.713,0.713,0,0,1-.21.514A0.7,0.7,0,0,1,1778.94,117.452Zm15.34-.049a0.44,0.44,0,0,1-.21.049,0.593,0.593,0,0,1-.3-0.087,0.5,0.5,0,0,1-.2-0.247l-0.97-2.3h-4.45l-0.96,2.3a0.538,0.538,0,0,1-.3.3,0.482,0.482,0,0,1-.41-0.011,0.542,0.542,0,0,1-.3-0.3,0.513,0.513,0,0,1,.01-0.42l1.11-2.638,2.58-6.116a0.494,0.494,0,0,1,.2-0.248,0.566,0.566,0,0,1,.6,0,0.477,0.477,0,0,1,.19.248c0.63,1.469,1.24,2.927,1.85,4.376s1.23,2.908,1.85,4.378a0.513,0.513,0,0,1,0,.42A0.5,0.5,0,0,1,1794.28,117.4Zm-3.9-7.851-1.76,4.161h3.52Zm11.91,7.9a0.54,0.54,0,0,1-.39-0.16,0.516,0.516,0,0,1-.16-0.385v-8.679a0.517,0.517,0,0,1,.16-0.385,0.54,0.54,0,0,1,.39-0.16,0.5,0.5,0,0,1,.38.16,0.517,0.517,0,0,1,.16.385v8.679a0.516,0.516,0,0,1-.16.385A0.5,0.5,0,0,1,1802.29,117.452Z" transform="translate(-1573 -41.969)"/>
</svg>
